<?xml version="1.0" standalone="no"?>
<!DOCTYPE svg PUBLIC "-//W3C//DTD SVG 20010904//EN"
 "http://www.w3.org/TR/2001/REC-SVG-20010904/DTD/svg10.dtd">
<svg version="1.0" xmlns="http://www.w3.org/2000/svg"
 width="700.000000pt" height="700.000000pt" viewBox="0 0 700.000000 700.000000"
 preserveAspectRatio="xMidYMid meet">
<metadata>
Created by potrace 1.11, written by Peter Selinger 2001-2013
</metadata>
<g transform="translate(0.000000,700.000000) scale(0.100000,-0.100000)"
fill="#000000" stroke="none">
<path d="M3256 6807 c-54 -106 -138 -268 -186 -362 -48 -93 -154 -300 -235
-460 -81 -159 -182 -357 -225 -440 -43 -82 -142 -276 -220 -430 -79 -154 -182
-356 -230 -450 -48 -93 -147 -287 -220 -430 -73 -143 -179 -350 -235 -460
-188 -366 -321 -628 -440 -860 -65 -126 -164 -320 -220 -430 -56 -110 -162
-317 -235 -460 -73 -143 -174 -341 -225 -440 -51 -99 -135 -263 -188 -365
-122 -239 -217 -427 -217 -433 0 -2 215 -4 478 -4 l478 0 194 381 c106 210
257 507 335 661 171 335 423 832 685 1350 106 209 261 515 345 680 190 373
477 940 579 1143 43 84 81 150 86 147 4 -3 74 -137 155 -297 81 -161 221 -438
311 -615 90 -177 164 -326 164 -331 0 -6 -126 -9 -306 -8 -168 0 -308 -2 -310
-5 -7 -12 -8 -599 -1 -606 4 -4 217 -8 474 -10 256 -1 467 -4 468 -5 1 -2 119
-235 262 -518 144 -283 315 -623 382 -754 l121 -239 0 -879 0 -879 348 3 c191
2 349 6 352 10 3 4 5 270 4 590 -3 823 -6 2630 -5 2650 1 15 44 16 514 16 281
1 523 1 537 1 l26 1 -2 158 c-1 86 -2 226 -3 309 l-1 153 -951 2 -951 3 -72
140 c-40 77 -144 280 -231 450 -87 171 -202 396 -255 500 -114 222 -285 558
-465 910 -70 138 -169 331 -220 430 -122 237 -165 323 -167 332 -1 5 -13 28
-28 53 -14 25 -53 98 -85 163 -32 65 -61 120 -65 122 -3 2 -50 -83 -104 -188z"/>
</g>
</svg>
