<?xml version="1.0" encoding="utf-8"?>
<!-- Generator: Adobe Illustrator 21.1.0, SVG Export Plug-In . SVG Version: 6.00 Build 0)  -->
<svg version="1.1" id="Layer_1" xmlns="http://www.w3.org/2000/svg" xmlns:xlink="http://www.w3.org/1999/xlink" x="0px" y="0px"
	 viewBox="0 0 353.2 111.6" style="enable-background:new 0 0 353.2 111.6;" xml:space="preserve">
<style type="text/css">
	.st0{fill:#B9539F;}
	.st1{fill:#FBBA15;}
	.st2{fill:#FFFFFF;}
	.st3{fill:#5C5C5C;}
	.st4{fill:url(#SVGID_1_);}
	.st5{fill:#454545;}
	.st6{fill:#ACABAB;}
	.st7{fill:#010101;}
	.st8{fill:url(#SVGID_2_);}
	.st9{fill:#F9B916;}
</style>
<g>
	<rect class="st9" width="353.2" height="111.6"/>
	<g>
		<g>
			<path class="st5" d="M71.1,69.1C62.8,54,54.5,38.8,46.2,23.6c0,0,0,0,0,0c0,0,0,0,0,0C34.2,42,23.6,61.5,14.4,82.2
				c3.2,0,6.5,0,9.7,0c7.4-13.6,14.7-27.2,22.1-40.8C52.1,52.2,58,63.1,63.9,74C66.3,72.4,68.7,70.8,71.1,69.1z"/>
			<g>
				<path class="st2" d="M71.1,59.5c4.1,0,8.2,0,12.2,0c0-2,0-3.9,0-5.9c-12.3,0-24.7-0.1-37-0.1c0,2,0,4,0,5.9
					c5.9,0,11.8,0.1,17.7,0.1C64,70,64,80.5,64,91c2.4,0,4.8,0,7.3-0.1C71.2,80.4,71.2,70,71.1,59.5z"/>
			</g>
		</g>
		<path class="st3" d="M291.2,63.5H133c0.3-0.1,0.6-0.3,0.8-0.4c52.2,0,104.5,0,156.7,0C290.7,63.2,291,63.4,291.2,63.5z"/>
		<g>
			<path class="st2" d="M104.6,55.8l9.4-26.7h5l9.5,26.7h-3.2l-2.9-8.3h-11.7l-2.9,8.3H104.6z M116.6,30.5l-5,14.5h10L116.6,30.5z"
				/>
			<path class="st2" d="M148.7,55.8V29.1h8.8c3.4,0,6,0.5,7.8,1.6c1.8,1.1,2.8,3.1,2.8,6c0,1.9-0.5,3.5-1.5,4.9
				c-1,1.4-2.6,2.1-4.7,2.1c1.3,0,2.3,0.3,3,0.9c0.6,0.6,1.1,1.3,1.3,2.2c0.2,0.9,0.4,1.8,0.4,2.7c0,0.9,0.1,1.8,0.2,2.5
				c0.1,0.8,0.3,1.3,0.7,1.7c0.4,0.3,1,0.4,1.9,0v2c-0.3,0.3-0.7,0.4-1.3,0.5c-0.6,0.1-1.2,0.1-1.8-0.1c-0.6-0.2-1.2-0.6-1.6-1.3
				c-0.4-0.7-0.6-1.6-0.6-2.9c0-2-0.1-3.5-0.3-4.5c-0.2-1.1-0.7-1.8-1.5-2.3c-0.8-0.5-2-0.7-3.6-0.7c-1.6,0-3.9,0-6.7,0v11.5H148.7z
				 M151.8,42h6.2c2.5,0,4.4-0.3,5.6-1c1.2-0.7,1.8-2,1.8-4c0-1.6-0.3-2.7-1-3.5c-0.7-0.7-1.6-1.2-2.9-1.4c-1.2-0.2-2.8-0.3-4.6-0.3
				h-5.1V42z"/>
			<path class="st2" d="M190.2,55.8V29.1h9.6c1.2,0,2.3,0.1,3.5,0.2c1.2,0.2,2.3,0.5,3.3,0.9c1,0.5,1.8,1.2,2.4,2.1
				c0.6,0.9,0.9,2.2,0.9,3.7c0,1-0.2,2-0.6,2.9c-0.4,0.9-1.1,1.6-2.1,2.1s-2.5,0.9-4.4,0.9c2.2,0,4,0.3,5.2,1c1.2,0.6,2,1.5,2.5,2.4
				c0.5,1,0.7,2.1,0.7,3.3c0,1.6-0.3,2.8-1,3.8c-0.7,0.9-1.6,1.7-2.6,2.1c-1.1,0.5-2.2,0.8-3.5,0.9c-1.3,0.1-2.5,0.2-3.6,0.2H190.2z
				 M193.2,40.8h6.3c1.5,0,2.8-0.1,3.9-0.3c1.1-0.2,2-0.6,2.6-1.2c0.6-0.6,0.9-1.6,0.9-2.9c0-1.5-0.3-2.6-1-3.2
				c-0.7-0.7-1.6-1.1-2.7-1.3c-1.1-0.2-2.3-0.3-3.6-0.3h-6.3V40.8z M193.2,53.3h6.9c1.5,0,2.8-0.1,4-0.3c1.2-0.2,2.1-0.6,2.8-1.3
				c0.7-0.7,1.1-1.7,1.1-3.2c0-1.5-0.4-2.6-1.1-3.3c-0.8-0.7-1.8-1.2-3-1.5c-1.3-0.2-2.7-0.4-4.2-0.4h-6.3V53.3z"/>
			<path class="st2" d="M234.9,53.3h15.4v2.6H232V29.1h17.9v2.7h-14.9V41h11.8v2.6h-11.8V53.3z"/>
			<path class="st2" d="M281.5,53.2v2.7h-10.3v-2.7h3.6V31.8h-3.6v-2.7h10.3v2.7h-3.6v21.4H281.5z"/>
			<path class="st2" d="M301.5,31.8v-2.7h20.1v2.7h-8.5v24h-3v-24H301.5z"/>
		</g>
		<g>
			<path class="st2" d="M105.3,83.6h8.4V85h-10V70.5h9.7v1.5h-8.1v5h6.4v1.4h-6.4V83.6z"/>
			<path class="st2" d="M135.5,70.5h1.7V85h-3.1l-7.2-13.8h-0.1V85h-1.7V70.5h2.9l7.4,13.8h0.1V70.5z"/>
			<path class="st2" d="M155.3,85.3c-1.4,0-2.6-0.3-3.6-0.9c-1-0.6-1.8-1.4-2.4-2.6s-0.8-2.5-0.8-4.1c0-1.6,0.3-3,0.9-4.1
				c0.6-1.1,1.4-2,2.5-2.6c1.1-0.6,2.3-0.9,3.7-0.9c1.8,0,3.3,0.4,4.4,1.3c1.1,0.9,1.8,2.1,2.1,3.7l-1.6,0.2
				c-0.3-1.3-0.9-2.2-1.7-2.8c-0.9-0.6-2-0.9-3.2-0.9c-1.8,0-3.2,0.5-4.1,1.6c-0.9,1-1.4,2.5-1.4,4.4c0,1.9,0.5,3.4,1.5,4.4
				c1,1,2.4,1.6,4.1,1.6c1.4,0,2.5-0.4,3.4-1.1c0.9-0.7,1.5-1.8,1.6-3.2h-4v-1.3h5.7V85h-1.2l-0.4-3.2h-0.1c-0.1,0.5-0.4,1-0.9,1.5
				c-0.4,0.6-1,1-1.8,1.4C157.4,85.1,156.5,85.3,155.3,85.3z"/>
			<path class="st2" d="M175.7,83.6h8.4V85h-10V70.5h9.7v1.5h-8.1v5h6.4v1.4h-6.4V83.6z"/>
			<path class="st2" d="M205.9,70.5h1.7V85h-3.1l-7.2-13.8h-0.1V85h-1.7V70.5h2.9l7.4,13.8h0.1V70.5z"/>
			<path class="st2" d="M221.6,85h-1.7V70.5h1.7v6.4h8.2v-6.4h1.6V85h-1.6v-6.8h-8.2V85z"/>
			<path class="st2" d="M242.8,85l5.1-14.5h2.7l5.2,14.5h-1.8l-1.6-4.5h-6.4l-1.6,4.5H242.8z M249.3,71.2l-2.7,7.9h5.4L249.3,71.2z"
				/>
			<path class="st2" d="M267,85V70.5h4.8c1.8,0,3.3,0.3,4.3,0.9c1,0.6,1.5,1.7,1.5,3.3c0,1-0.3,1.9-0.8,2.7
				c-0.6,0.7-1.4,1.1-2.6,1.1c0.7,0,1.3,0.2,1.6,0.5c0.4,0.3,0.6,0.7,0.7,1.2c0.1,0.5,0.2,1,0.2,1.5c0,0.5,0.1,1,0.1,1.4
				c0.1,0.4,0.2,0.7,0.4,0.9c0.2,0.2,0.5,0.2,1,0v1.1c-0.2,0.1-0.4,0.2-0.7,0.3c-0.3,0.1-0.6,0-1-0.1c-0.3-0.1-0.6-0.3-0.9-0.7
				c-0.2-0.4-0.3-0.9-0.3-1.6c0-1.1-0.1-1.9-0.2-2.5c-0.1-0.6-0.4-1-0.8-1.3c-0.4-0.3-1.1-0.4-2-0.4c-0.9,0-2.1,0-3.7,0V85H267z
				 M268.6,77.5h3.4c1.4,0,2.4-0.2,3-0.5c0.7-0.4,1-1.1,1-2.2c0-0.9-0.2-1.5-0.5-1.9c-0.4-0.4-0.9-0.7-1.6-0.8
				c-0.7-0.1-1.5-0.2-2.5-0.2h-2.8V77.5z"/>
			<path class="st2" d="M295.3,83.5V85h-5.6v-1.4h2V71.9h-2v-1.4h5.6v1.4h-2v11.6H295.3z"/>
			<path class="st2" d="M306.6,85l5.1-14.5h2.7l5.2,14.5h-1.8l-1.6-4.5h-6.4l-1.6,4.5H306.6z M313.1,71.2l-2.7,7.9h5.4L313.1,71.2z"
				/>
		</g>
	</g>
</g>
</svg>
